:SAMPLES-PER-SECOND 30
:FULLY-SPECIFIED
:DEGREES
576
root  80.9481 40.3277 -0.0203032 85.4211 88.7149 87.5264
RightUpLeg  0.0419595 -7.98615 -3.44879
RightLeg  7.39708 -7.89124 3.27255
RightFoot  -3.67294 0.218281 -3.72221
RightToes  -1.33073e-015 0 -3.6325e-017
Spine  8.86989 0.10695 3.10411
Spine1  -6.66553 1.10739 -5.96317
HEad  -5.53151 3.19259 5.01989
LeftShoulder1  -0.00328547 -2.62968 9.70221
LeftArm  -16.5673 15.7997 -12.394
LeftForeArm  26.226 -4.15423 -1.47148
LeftHand  -0.244104 0.0205437 5.32207
RightShoulder  0.922088 1.11876 13.0096
RightArm  -12.0447 -8.78768 -4.10451
RightForeArm  -3.62897 1.48645 4.19077
RightHand  -6.09433 11.9428 -39.1283
LeftUpLeg  -0.915283 3.29964 0.503367
LeftLeg  3.24816 9.31 -3.28838
LeftFoot  -0.625025 -0.0459624 0.559068
LeftToes  -7.82198e-011 2.46994e-011 -7.94165e-012
577
root  80.9743 40.3217 -0.0629637 79.6557 88.6873 81.5455
RightUpLeg  -0.178451 -8.01094 -3.51681
RightLeg  7.44519 -7.7656 3.29092
RightFoot  -3.75455 0.205794 -3.54602
RightToes  -1.33073e-015 0 -3.6325e-017
Spine  8.28053 -0.00759391 1.71692
Spine1  -5.60364 0.731938 -4.19258
HEad  -6.85931 4.19803 4.67331
LeftShoulder1  -0.0013926 -0.458786 9.51069
LeftArm  -17.4291 15.2866 -13.3933
LeftForeArm  26.2883 -4.03899 -1.24496
LeftHand  -0.244104 0.0205437 5.32207
RightShoulder  1.02758 1.41889 13.9571
RightArm  -14.4604 -6.44731 -4.75471
RightForeArm  0.375529 -1.92651 3.06735
RightHand  -6.94989 14.8671 -38.6526
LeftUpLeg  -1.06748 3.32405 0.463429
LeftLeg  3.15984 9.45556 -3.4003
LeftFoot  -0.637155 -0.0544948 0.686614
LeftToes  -7.82198e-011 2.46994e-011 -7.94165e-012
578
root  81.013 40.318 -0.117628 78.1787 88.6617 79.9946
RightUpLeg  -0.21818 -8.08434 -3.63891
RightLeg  7.49879 -7.6608 3.30886
RightFoot  -3.87044 0.196204 -3.41848
RightToes  -1.33073e-015 0 -3.6325e-017
Spine  8.16744 0.256103 1.53172
Spine1  -5.41063 0.874728 -3.24269
HEad  -7.3263 4.29667 3.82013
LeftShoulder1  0.123972 -0.792292 6.95558
LeftArm  -17.0973 14.7584 -11.52
LeftForeArm  25.264 -3.73521 -1.29741
LeftHand  -0.244104 0.0205437 5.32207
RightShoulder  0.748256 0.511947 11.7241
RightArm  -14.9529 -6.81556 -3.20809
RightForeArm  1.91396 -1.97955 2.799
RightHand  -6.95083 15.1642 -38.1096
LeftUpLeg  -1.0566 3.272 0.355481
LeftLeg  3.11052 9.56475 -3.42121
LeftFoot  -0.686614 -0.0611312 0.784095
LeftToes  -7.82198e-011 2.46994e-011 -7.94165e-012
579
root  81.0578 40.317 -0.175305 78.1517 88.7177 79.9883
RightUpLeg  -0.143814 -8.08812 -3.6651
RightLeg  7.536 -7.67941 3.27471
RightFoot  -3.94717 0.194612 -3.42153
RightToes  -1.33073e-015 0 -3.6325e-017
Spine  9.14399 0.766538 0.493788
Spine1  -7.74738 0.910149 -0.385301
HEad  -4.97897 4.41687 2.13271
LeftShoulder1  0.401969 -3.85913 3.22343
LeftArm  -15.35 16.7415 -7.94444
LeftForeArm  24.2092 -3.66493 -1.55252
LeftHand  -0.244104 0.0205437 5.32207
RightShoulder  0.650292 1.21987 5.98829
RightArm  -15.5593 -10.0242 -0.0717648
RightForeArm  2.5713 -1.64595 2.18651
RightHand  -8.00531 17.2629 -39.6962
LeftUpLeg  -0.982829 3.2777 0.323963
LeftLeg  3.1854 9.54958 -3.39725
LeftFoot  -0.855157 -0.0593595 0.750438
LeftToes  -7.82198e-011 2.46994e-011 -7.94165e-012
580
root  81.0862 40.3129 -0.22038 77.2915 88.7862 79.1036
RightUpLeg  -0.191433 -8.01145 -3.60214
RightLeg  7.65079 -7.78708 3.16448
RightFoot  -4.00489 0.194794 -3.46005
RightToes  -1.33073e-015 0 -3.6325e-017
Spine  9.19064 0.725876 1.21109
Spine1  -7.8098 1.06026 -1.66375
HEad  -4.84882 4.03241 2.91311
LeftShoulder1  0.349433 -4.0272 4.32368
LeftArm  -15.4869 16.943 -8.4004
LeftForeArm  24.5406 -3.62164 -1.48329
LeftHand  -0.244104 0.0205437 5.32207
RightShoulder  0.618876 0.737381 6.97514
RightArm  -16.3701 -9.90558 -0.681529
RightForeArm  5.05686 -1.79908 1.73407
RightHand  -8.82415 19.3688 -39.9784
LeftUpLeg  -1.0381 3.35907 0.34671
LeftLeg  3.3399 9.46777 -3.39752
LeftFoot  -1.00472 -0.0591141 0.740198
LeftToes  -7.82198e-011 2.46994e-011 -7.94165e-012
581
root  81.1011 40.3057 -0.259722 76.8184 88.7981 78.5538
RightUpLeg  -0.334397 -7.98696 -3.60001
RightLeg  7.81996 -7.82359 3.0692
RightFoot  -4.0891 0.189938 -3.43159
RightToes  -1.33073e-015 0 -3.6325e-017
Spine  9.22388 0.887391 2.81412
Spine1  -7.68863 1.5828 -3.96856
HEad  -5.21731 2.51048 3.85453
LeftShoulder1  0.386955 -4.65386 4.19363
LeftArm  -15.2295 15.8035 -7.62209
LeftForeArm  24.5967 -2.97601 -1.57022
LeftHand  -0.244104 0.0205437 5.32207
RightShoulder  0.331789 -1.24806 7.24613
RightArm  -17.1717 -9.65064 -0.0903836
RightForeArm  8.15432 -1.65305 1.33193
RightHand  -9.18344 20.4602 -39.8476
LeftUpLeg  -1.18933 3.37935 0.290454
LeftLeg  3.50447 9.45272 -3.3703
LeftFoot  -1.07662 -0.0643393 0.814824
LeftToes  -7.82198e-011 2.46994e-011 -7.94165e-012
582
root  81.1149 40.3005 -0.299572 78.0431 88.7656 79.7211
RightUpLeg  -0.434826 -8.05804 -3.69952
RightLeg  7.96624 -7.74955 3.04111
RightFoot  -4.19066 0.182939 -3.37463
RightToes  -1.33073e-015 0 -3.6325e-017
Spine  9.02502 0.802873 2.9543
Spine1  -7.31067 1.59099 -4.57655
HEad  -5.44792 2.00297 4.64718
LeftShoulder1  0.305983 -4.12531 5.05919
LeftArm  -15.2964 15.4189 -8.19063
LeftForeArm  24.7857 -2.99185 -1.62644
LeftHand  -0.244104 0.0205437 5.32207
RightShoulder  0.303215 -1.63817 8.52847
RightArm  -17.4686 -8.95889 -0.909457
RightForeArm  8.5504 -1.3922 1.36714
RightHand  -9.31485 21.215 -39.3378
LeftUpLeg  -1.28506 3.29609 0.153948
LeftLeg  3.6101 9.52195 -3.305
LeftFoot  -1.13365 -0.065478 0.825925
LeftToes  -7.82198e-011 2.46994e-011 -7.94165e-012
583
root  81.1268 40.2995 -0.334626 78.2804 88.7314 79.9333
RightUpLeg  -0.491689 -8.11727 -3.78903
RightLeg  8.07094 -7.65632 3.01809
RightFoot  -4.25741 0.18068 -3.3654
RightToes  -1.33073e-015 0 -3.6325e-017
Spine  9.31775 0.54635 1.78991
Spine1  -8.21578 1.11936 -3.57455
HEad  -4.20788 2.66907 5.13517
LeftShoulder1  0.155482 -3.92189 7.2013
LeftArm  -15.7083 17.2856 -9.98235
LeftForeArm  25.5304 -3.80038 -1.45308
LeftHand  -0.244104 0.0205437 5.32207
RightShoulder  0.672972 0.530899 9.40442
RightArm  -17.6119 -9.65065 -2.58232
RightForeArm  4.9443 -0.274021 1.79478
RightHand  -7.58687 19.161 -34.8336
LeftUpLeg  -1.29122 3.20589 0.0472316
LeftLeg  3.6132 9.61996 -3.27456
LeftFoot  -1.1788 -0.0606148 0.743875
LeftToes  -7.82198e-011 2.46994e-011 -7.94165e-012
584
root  81.1272 40.3 -0.360005 76.6193 88.7349 78.2952
RightUpLeg  -0.508115 -8.0865 -3.7842
RightLeg  8.13357 -7.63752 2.95004
RightFoot  -4.26176 0.181298 -3.39136
RightToes  -1.33073e-015 0 -3.6325e-017
Spine  9.43362 0.531494 2.17195
Spine1  -8.35886 1.20717 -4.32309
HEad  -4.27616 2.60749 5.51646
LeftShoulder1  0.13301 -4.18981 7.68257
LeftArm  -16.0808 17.266 -10.2155
LeftForeArm  25.7213 -3.96268 -1.34758
LeftHand  -0.244104 0.0205437 5.32207
RightShoulder  0.685478 0.435834 9.92533
RightArm  -19.9699 -9.80385 -3.46302
RightForeArm  3.98924 1.62282 1.79624
RightHand  -4.33072 17.0523 -22.5712
LeftUpLeg  -1.25709 3.18854 0.0248979
LeftLeg  3.59458 9.6692 -3.28055
LeftFoot  -1.18436 -0.0596635 0.722909
LeftToes  -7.82198e-011 2.46994e-011 -7.94165e-012
585
root  81.1127 40.2978 -0.37803 75.0779 88.7658 76.7937
RightUpLeg  -0.522097 -8.03582 -3.73666
RightLeg  8.18267 -7.66028 2.88086
RightFoot  -4.24 0.181178 -3.39889
RightToes  -1.33073e-015 0 -3.6325e-017
Spine  9.46714 0.100019 0.940805
Spine1  -8.49548 0.565865 -3.11357
HEad  -4.35964 4.00375 5.5861
LeftShoulder1  0.0338007 -3.00842 8.99548
LeftArm  -16.9325 17.7584 -11.5921
LeftForeArm  26.7359 -3.79291 -0.990013
LeftHand  -0.244104 0.0205437 5.32207
RightShoulder  1.11765 2.40752 11.8789
RightArm  -21.936 -9.23538 -6.29093
RightForeArm  7.12607 1.4394 1.34089
RightHand  -1.69004 18.7824 -8.52251
LeftUpLeg  -1.2791 3.20895 0.0289823
LeftLeg  3.67684 9.66545 -3.25406
LeftFoot  -1.19292 -0.0656122 0.809617
LeftToes  -7.82198e-011 2.46994e-011 -7.94165e-012
586
root  81.0905 40.2928 -0.393933 73.9133 88.7901 75.6515
RightUpLeg  -0.560252 -8.03911 -3.72243
RightLeg  8.23272 -7.63798 2.86637
RightFoot  -4.2373 0.179808 -3.38278
RightToes  -1.33073e-015 0 -3.6325e-017
Spine  10.0005 0.0471294 0.895312
Spine1  -9.38294 0.494536 -3.19147
HEad  -3.79824 3.94301 5.74849
LeftShoulder1  0.00828716 -3.50045 9.46006
LeftArm  -17.2248 17.8987 -11.8438
LeftForeArm  27.6119 -3.08091 -0.724182
LeftHand  -0.244104 0.0205437 5.32207
RightShoulder  1.2215 2.88575 12.0246
RightArm  -22.1564 -9.29285 -6.69928
RightForeArm  10.9945 0.569016 0.880239
RightHand  -1.03431 20.4395 -5.33403
LeftUpLeg  -1.3671 3.23303 0.0151365
LeftLeg  3.84333 9.65994 -3.19276
LeftFoot  -1.24597 -0.0712955 0.894008
LeftToes  -7.82198e-011 2.46994e-011 -7.94165e-012
587
root  81.0678 40.2883 -0.411308 69.8734 88.7871 71.6326
RightUpLeg  -0.600026 -8.05764 -3.72388
RightLeg  8.26853 -7.54227 2.8748
RightFoot  -4.25292 0.17923 -3.37758
RightToes  -1.33073e-015 0 -3.6325e-017
Spine  10.6947 -0.191169 0.266894
Spine1  -10.8027 0.114814 -2.54492
HEad  -2.62308 4.19752 5.9264
LeftShoulder1  -0.0540122 -4.02877 10.44
LeftArm  -16.5994 19.7493 -12.2059
LeftForeArm  28.016 -3.61734 -0.86536
LeftHand  -0.244104 0.0205437 5.32207
RightShoulder  1.57831 4.71635 12.1768
RightArm  -25.8411 -9.41521 -7.44084
RightForeArm  29.1197 -1.8247 -2.032
RightHand  -0.721073 28.9055 -2.83719
LeftUpLeg  -1.43348 3.26339 0.00762975
LeftLeg  3.96779 9.72399 -3.15583
LeftFoot  -1.29969 -0.0737848 0.932699
LeftToes  -7.82198e-011 2.46994e-011 -7.94165e-012
